<svg width="162" height="137" viewBox="0 0 162 137" fill="none" xmlns="http://www.w3.org/2000/svg">
<g clip-path="url(#clip0_9805_214516)">
<path d="M47.5997 50.9231L36.6086 42.6757C36.5586 42.6376 36.4973 42.6172 36.4344 42.6177H22.9392C19.5672 42.6177 16.3333 41.2783 13.9489 38.8941C11.5645 36.51 10.225 33.2764 10.225 29.9046V24.187C10.225 20.8153 11.5645 17.5817 13.9489 15.1976C16.3333 12.8134 19.5672 11.474 22.9392 11.474H41.8062C45.1782 11.474 48.4121 12.8134 50.7965 15.1976C53.1809 17.5817 54.5204 20.8153 54.5204 24.187V32.1117C54.5202 34.2653 53.8583 36.367 52.6244 38.1322C51.3904 39.8973 49.6439 41.2409 47.6212 41.9809C47.6142 41.9829 47.608 41.9871 47.6037 41.993C47.5994 41.9988 47.5973 42.006 47.5975 42.0132L47.5997 50.9231Z" fill="#F0F0F0"/>
<path d="M48.0301 51.7834L36.3873 43.0478H22.9394C19.4545 43.0438 16.1135 41.6578 13.6493 39.1938C11.1851 36.7299 9.79891 33.3892 9.79492 29.9046V24.1869C9.79891 20.7024 11.1851 17.3616 13.6493 14.8977C16.1135 12.4337 19.4545 11.0477 22.9394 11.0437H41.8064C45.2913 11.0477 48.6323 12.4337 51.0966 14.8977C53.5608 17.3616 54.9469 20.7024 54.9509 24.1869V32.1116C54.9466 34.3053 54.2846 36.4473 53.0506 38.261C51.8165 40.0747 50.067 41.4768 48.028 42.2863L48.0301 51.7834ZM22.9394 11.9041C19.6826 11.9076 16.5601 13.2027 14.2571 15.5055C11.9542 17.8082 10.6589 20.9304 10.6554 24.1869V29.9046C10.6589 33.1611 11.9542 36.2833 14.2571 38.5861C16.5601 40.8888 19.6826 42.184 22.9394 42.1874H36.4346C36.5897 42.1884 36.7404 42.2389 36.8648 42.3315L47.1675 50.0604V42.0131C47.169 41.919 47.1991 41.8275 47.2536 41.7507C47.3081 41.6739 47.3846 41.6154 47.4729 41.5829C49.4105 40.8696 51.0832 39.5802 52.2662 37.8882C53.4492 36.1962 54.0858 34.1826 54.0904 32.1181V24.1869C54.087 20.9304 52.7917 17.8082 50.4887 15.5055C48.1858 13.2027 45.0633 11.9076 41.8064 11.9041H22.9394Z" fill="#5645FF"/>
<path d="M31.9749 30.096C31.8205 30.0968 31.6677 30.0647 31.5266 30.002C31.3855 29.9393 31.2593 29.8474 31.1564 29.7323C31.0535 29.6172 30.9762 29.4816 30.9297 29.3344C30.8831 29.1872 30.8683 29.0318 30.8863 28.8785C30.9239 28.5528 30.9902 28.2311 31.0842 27.917C31.2232 27.4206 31.4708 26.9614 31.8092 26.5725C32.1784 26.1889 32.5982 25.8575 33.057 25.5873C33.3614 25.3981 33.6429 25.1743 33.896 24.9205C34.1271 24.6857 34.3137 24.4109 34.4467 24.1095C34.5809 23.7956 34.6483 23.4571 34.6446 23.1157C34.6532 22.7153 34.548 22.3208 34.3413 21.9778C34.1387 21.6515 33.8488 21.3884 33.5044 21.2184C33.1496 21.0424 32.7595 20.949 32.3635 20.9453C31.9674 20.9416 31.5756 21.0276 31.2176 21.1969C30.8665 21.3692 30.5689 21.634 30.3571 21.9627C30.2562 22.1157 30.1759 22.2814 30.1183 22.4553C30.042 22.6802 29.8972 22.8755 29.7043 23.014C29.5114 23.1525 29.2801 23.2271 29.0426 23.2276C28.8573 23.2282 28.6746 23.1839 28.5102 23.0984C28.3458 23.0129 28.2046 22.8887 28.0988 22.7365C27.993 22.5844 27.9257 22.4089 27.9027 22.225C27.8798 22.0411 27.9018 21.8544 27.967 21.6809C28.0651 21.4286 28.1891 21.1871 28.337 20.9603C28.7484 20.3327 29.3285 19.8339 30.0107 19.5212C30.7607 19.1952 31.5704 19.029 32.3882 19.033C33.2061 19.0371 34.014 19.2114 34.7608 19.5449C35.4308 19.86 35.9956 20.362 36.3872 20.9904C36.779 21.6385 36.9789 22.3844 36.9637 23.1415C36.9706 23.6552 36.8824 24.1657 36.7034 24.6473C36.5354 25.0916 36.285 25.5003 35.9655 25.8519C35.6205 26.2258 35.2234 26.5482 34.7866 26.8092C34.4007 27.0368 34.0499 27.3194 33.7454 27.6481C33.4861 27.9384 33.2937 28.282 33.1817 28.6548C33.1296 28.8245 33.0901 28.9977 33.0634 29.1732C33.0241 29.4312 32.8943 29.6667 32.6972 29.8377C32.5002 30.0088 32.2487 30.1041 31.9878 30.1068L31.9749 30.096Z" fill="#5E39FF"/>
<path d="M31.2002 34.5897C30.9713 34.4572 30.7808 34.2674 30.6473 34.039C30.514 33.8126 30.4476 33.553 30.4559 33.2904C30.45 33.0255 30.5162 32.7639 30.6473 32.5336C30.7783 32.3033 30.9695 32.1128 31.2002 31.9825C31.4322 31.8504 31.6948 31.7814 31.9618 31.7825C32.2274 31.7812 32.4887 31.8502 32.7191 31.9825C32.9492 32.1127 33.1396 32.3031 33.2698 32.5332C33.4048 32.7632 33.4789 33.0238 33.4849 33.2904C33.4791 33.5543 33.405 33.8122 33.2698 34.039C33.136 34.2663 32.9464 34.4559 32.7191 34.5897C32.4909 34.7289 32.2291 34.8033 31.9618 34.8048C31.6932 34.8031 31.43 34.7288 31.2002 34.5897Z" fill="#5E39FF"/>
<path d="M82.5498 136.229C100.681 136.229 115.379 134.612 115.379 132.618C115.379 130.623 100.681 129.006 82.5498 129.006C64.4189 129.006 49.7208 130.623 49.7208 132.618C49.7208 134.612 64.4189 136.229 82.5498 136.229Z" fill="#E5D9F3"/>
<path d="M83.5351 33.482C85.7106 33.482 87.4742 31.7186 87.4742 29.5433C87.4742 27.368 85.7106 25.6046 83.5351 25.6046C81.3596 25.6046 79.5961 27.368 79.5961 29.5433C79.5961 31.7186 81.3596 33.482 83.5351 33.482Z" fill="#E5D9F3"/>
<path d="M115.05 14.4425C119.038 14.4425 122.272 11.2094 122.272 7.22125C122.272 3.23307 119.038 0 115.05 0C111.061 0 107.828 3.23307 107.828 7.22125C107.828 11.2094 111.061 14.4425 115.05 14.4425Z" fill="#E5D9F3"/>
<path d="M0.0190307 57.5958C0.0480004 57.5192 0.106135 57.4572 0.18072 57.4233C0.255306 57.3895 0.340278 57.3865 0.417031 57.4151L1.53571 57.8346C1.61093 57.8645 1.67148 57.9225 1.70441 57.9965C1.73735 58.0704 1.74006 58.1542 1.71195 58.2301C1.68385 58.306 1.62716 58.3679 1.55402 58.4025C1.48088 58.4371 1.3971 58.4418 1.32058 58.4154L0.2019 57.9852L0.167472 57.9701C0.101869 57.936 0.0507557 57.8794 0.0234951 57.8106C-0.00376548 57.7419 -0.00534989 57.6657 0.0190307 57.5958ZM4.03338 59.1016C4.04724 59.0633 4.06862 59.0282 4.09626 58.9983C4.1239 58.9684 4.15724 58.9443 4.19432 58.9275C4.2314 58.9106 4.27147 58.9014 4.31218 58.9003C4.35289 58.8991 4.39341 58.9062 4.43137 58.9209L7.90573 60.2245C7.94703 60.236 7.98549 60.256 8.01867 60.2831C8.05185 60.3102 8.07903 60.344 8.0985 60.3822C8.11798 60.4204 8.1293 60.4622 8.13178 60.505C8.13425 60.5478 8.12782 60.5906 8.11288 60.6308C8.09794 60.671 8.07483 60.7076 8.045 60.7384C8.01517 60.7692 7.97926 60.7934 7.93957 60.8096C7.89988 60.8258 7.85725 60.8336 7.8144 60.8325C7.77154 60.8314 7.72939 60.8214 7.6906 60.8031L4.21624 59.4996L4.17967 59.4824C4.11348 59.4478 4.06214 59.3903 4.03522 59.3206C4.0083 59.2509 4.00765 59.1739 4.03338 59.1038V59.1016ZM10.4012 61.4915C10.4302 61.4149 10.4884 61.3529 10.5629 61.319C10.6375 61.2851 10.7225 61.2822 10.7992 61.3108L14.2736 62.6165C14.3119 62.6304 14.347 62.6518 14.3769 62.6794C14.4068 62.707 14.4309 62.7404 14.4478 62.7774C14.4646 62.8145 14.4739 62.8546 14.475 62.8953C14.4761 62.936 14.4691 62.9765 14.4543 63.0145C14.4253 63.0911 14.3672 63.1531 14.2926 63.187C14.218 63.2208 14.1331 63.2238 14.0563 63.1952L10.582 61.8894L10.5475 61.8744C10.4812 61.8394 10.4298 61.7815 10.4029 61.7115C10.376 61.6415 10.3754 61.5641 10.4012 61.4936V61.4915ZM16.7713 63.8835C16.8002 63.8069 16.8584 63.7449 16.933 63.711C17.0076 63.6772 17.0925 63.6742 17.1693 63.7028L20.6436 65.0064C20.6849 65.0179 20.7234 65.0379 20.7566 65.065C20.7897 65.0922 20.8169 65.1259 20.8364 65.1641C20.8559 65.2023 20.8672 65.2441 20.8697 65.2869C20.8722 65.3297 20.8657 65.3725 20.8508 65.4127C20.8358 65.4529 20.8127 65.4895 20.7829 65.5203C20.7531 65.5511 20.7172 65.5754 20.6775 65.5916C20.6378 65.6078 20.5952 65.6155 20.5523 65.6144C20.5094 65.6133 20.4673 65.6033 20.4285 65.585L16.9541 64.2815L16.9197 64.2664C16.8526 64.2321 16.8005 64.1744 16.7731 64.1042C16.7458 64.0341 16.7451 63.9563 16.7713 63.8857V63.8835ZM23.1392 66.2755C23.1681 66.1984 23.2265 66.1358 23.3015 66.1016C23.3765 66.0673 23.462 66.0641 23.5393 66.0927L27.0115 67.3984C27.0528 67.4099 27.0913 67.4299 27.1244 67.457C27.1576 67.4842 27.1848 67.5179 27.2043 67.5561C27.2237 67.5943 27.2351 67.6361 27.2375 67.6789C27.24 67.7217 27.2336 67.7645 27.2187 67.8047C27.2037 67.8449 27.1806 67.8815 27.1508 67.9123C27.1209 67.9431 27.085 67.9674 27.0453 67.9836C27.0056 67.9998 26.963 68.0076 26.9202 68.0064C26.8773 68.0053 26.8352 67.9953 26.7964 67.9771L23.3242 66.6735L23.2876 66.6563C23.2213 66.6217 23.1698 66.5643 23.1425 66.4948C23.1153 66.4252 23.1141 66.3481 23.1392 66.2777V66.2755ZM29.5092 68.6654C29.5381 68.5888 29.5963 68.5268 29.6709 68.4929C29.7454 68.4591 29.8304 68.4561 29.9072 68.4847L33.3815 69.7883C33.4567 69.8181 33.5173 69.8762 33.5502 69.9501C33.5832 70.0241 33.5859 70.1079 33.5578 70.1838C33.5297 70.2597 33.473 70.3216 33.3998 70.3562C33.3267 70.3908 33.2429 70.3954 33.1664 70.3691L29.692 69.0634L29.6576 69.0483C29.5905 69.014 29.5384 68.9563 29.511 68.8861C29.4837 68.816 29.483 68.7382 29.5092 68.6676V68.6654Z" fill="#A14FE4"/>
<path d="M15.3744 93.5321C15.3405 93.414 15.3547 93.2872 15.4139 93.1796C15.4732 93.072 15.5727 92.9922 15.6907 92.9577L16.2543 92.7942C16.3695 92.769 16.4899 92.7885 16.5912 92.8488C16.6925 92.9091 16.7671 93.0056 16.8 93.1188C16.8328 93.232 16.8213 93.3534 16.768 93.4585C16.7146 93.5636 16.6232 93.6445 16.5125 93.6848L15.9488 93.8483C15.834 93.8827 15.7103 93.8703 15.6046 93.8139C15.5491 93.785 15.5001 93.7451 15.4605 93.6967C15.4209 93.6482 15.3916 93.5922 15.3744 93.5321ZM18.9004 92.5082C18.8833 92.4497 18.8779 92.3884 18.8846 92.3278C18.8912 92.2673 18.9098 92.2086 18.9392 92.1553C18.9685 92.1019 19.0082 92.0549 19.0558 92.0169C19.1034 91.9788 19.1581 91.9506 19.2166 91.9338L22.7814 90.9013C22.8965 90.8761 23.017 90.8956 23.1183 90.9558C23.2196 91.0161 23.2942 91.1126 23.327 91.2258C23.3598 91.339 23.3484 91.4605 23.295 91.5656C23.2416 91.6707 23.1503 91.7515 23.0395 91.7918L19.4834 92.8265C19.4249 92.8436 19.3636 92.849 19.3031 92.8423C19.2425 92.8357 19.1839 92.8172 19.1305 92.7878C19.0771 92.7584 19.0301 92.7187 18.9921 92.6711C18.9541 92.6235 18.9258 92.5689 18.909 92.5103L18.9004 92.5082ZM25.4339 90.6152C25.4 90.4971 25.4142 90.3704 25.4735 90.2627C25.5327 90.1551 25.6322 90.0753 25.7502 90.0408L29.3149 89.0062C29.43 88.9809 29.5505 89.0005 29.6518 89.0607C29.7531 89.121 29.8277 89.2175 29.8606 89.3307C29.8934 89.4439 29.8819 89.5654 29.8286 89.6705C29.7752 89.7755 29.6838 89.8564 29.573 89.8967L26.0083 90.9314C25.9498 90.9485 25.8886 90.9539 25.828 90.9472C25.7674 90.9406 25.7088 90.922 25.6554 90.8926C25.602 90.8633 25.555 90.8236 25.517 90.776C25.479 90.7284 25.4508 90.6737 25.4339 90.6152ZM31.9696 88.7201C31.9522 88.6616 31.9466 88.6002 31.9531 88.5396C31.9596 88.4789 31.9781 88.4202 32.0076 88.3667C32.037 88.3133 32.0767 88.2662 32.1245 88.2283C32.1723 88.1903 32.2271 88.1623 32.2858 88.1457L35.8484 87.1132C35.9082 87.0914 35.9718 87.0822 36.0354 87.0861C36.0989 87.0899 36.1609 87.1068 36.2177 87.1356C36.2744 87.1644 36.3246 87.2045 36.3652 87.2535C36.4057 87.3026 36.4358 87.3594 36.4535 87.4205C36.4712 87.4816 36.4762 87.5457 36.4681 87.6088C36.4601 87.6719 36.4391 87.7327 36.4066 87.7874C36.3741 87.8421 36.3306 87.8895 36.279 87.9267C36.2274 87.9639 36.1687 87.9901 36.1066 88.0037L32.544 89.0363C32.4855 89.0534 32.4242 89.0588 32.3637 89.0521C32.3031 89.0455 32.2445 89.0269 32.1911 88.9975C32.1377 88.9681 32.0907 88.9285 32.0527 88.8809C32.0146 88.8333 31.9864 88.7786 31.9696 88.7201Z" fill="#A14FE4"/>
<path d="M149.7 91.4777L149.119 91.4067C149.056 91.4026 148.994 91.3857 148.938 91.3569C148.882 91.3281 148.832 91.2881 148.791 91.2393C148.751 91.1905 148.721 91.134 148.703 91.0733C148.685 91.0125 148.68 90.9488 148.688 90.886C148.696 90.8232 148.716 90.7626 148.748 90.708C148.78 90.6534 148.823 90.6059 148.874 90.5685C148.925 90.531 148.984 90.5044 149.045 90.4902C149.107 90.4761 149.171 90.4747 149.233 90.4861L149.814 90.5592C149.905 90.5712 149.991 90.6102 150.06 90.6712C150.129 90.7323 150.179 90.8126 150.202 90.9018C150.225 90.991 150.221 91.0851 150.19 91.172C150.159 91.259 150.103 91.3347 150.029 91.3895C149.935 91.4604 149.817 91.492 149.7 91.4777ZM146.043 91.0282L142.36 90.5743C142.243 90.5529 142.139 90.4877 142.069 90.3922C141.999 90.2966 141.968 90.1778 141.982 90.0602C141.997 89.9425 142.056 89.8349 142.147 89.7593C142.239 89.6837 142.355 89.6459 142.474 89.6536L146.157 90.1075C146.279 90.1231 146.39 90.1863 146.466 90.2834C146.541 90.3805 146.576 90.5036 146.561 90.6259C146.553 90.6877 146.532 90.7473 146.501 90.8012C146.47 90.8551 146.428 90.9022 146.378 90.9399C146.285 91.0087 146.169 91.0402 146.053 91.0282H146.043ZM139.292 90.1957L135.607 89.7418C135.49 89.7204 135.386 89.6553 135.316 89.5597C135.246 89.4641 135.215 89.3453 135.229 89.2277C135.244 89.11 135.303 89.0024 135.394 88.9268C135.486 88.8512 135.602 88.8134 135.721 88.8211L139.404 89.275C139.467 89.2787 139.529 89.2953 139.586 89.3239C139.642 89.3524 139.693 89.3923 139.733 89.441C139.774 89.4897 139.804 89.5462 139.822 89.6071C139.84 89.668 139.846 89.7319 139.838 89.7949C139.83 89.8579 139.81 89.9187 139.778 89.9735C139.746 90.0283 139.703 90.0759 139.652 90.1134C139.601 90.151 139.542 90.1777 139.48 90.1918C139.418 90.206 139.354 90.2073 139.292 90.1957ZM132.539 89.3632L128.856 88.9093C128.793 88.9052 128.731 88.8882 128.675 88.8594C128.618 88.8306 128.568 88.7906 128.528 88.7419C128.488 88.6931 128.458 88.6366 128.44 88.5759C128.422 88.5151 128.417 88.4514 128.425 88.3886C128.433 88.3257 128.453 88.2652 128.485 88.2106C128.517 88.156 128.56 88.1085 128.611 88.0711C128.662 88.0336 128.72 88.007 128.782 87.9928C128.844 87.9786 128.908 87.9772 128.97 87.9886L132.653 88.4425C132.713 88.45 132.772 88.4692 132.824 88.4992C132.877 88.5292 132.924 88.5693 132.961 88.6173C132.998 88.6652 133.026 88.7201 133.042 88.7787C133.058 88.8373 133.063 88.8985 133.055 88.9588C133.048 89.0213 133.028 89.0816 132.997 89.136C132.965 89.1904 132.923 89.2377 132.872 89.275C132.78 89.3436 132.664 89.3751 132.55 89.3632H132.539Z" fill="#A14FE4"/>
<path d="M161.816 59.2241L159.312 60.3448C159.237 60.3785 159.152 60.381 159.075 60.3517C158.998 60.3225 158.936 60.2639 158.902 60.1889C158.868 60.1139 158.866 60.0285 158.895 59.9517C158.924 59.8748 158.983 59.8127 159.058 59.7791L161.564 58.6562C161.634 58.6246 161.713 58.6199 161.786 58.643C161.859 58.6662 161.921 58.7155 161.96 58.7815C161.998 58.8475 162.011 58.9255 161.996 59.0005C161.98 59.0755 161.938 59.1421 161.876 59.1875L161.816 59.2241ZM156.489 61.6118L153.103 63.1284C153.03 63.1557 152.948 63.1541 152.876 63.1238C152.803 63.0935 152.745 63.0368 152.713 62.9652C152.681 62.8936 152.677 62.8124 152.702 62.7381C152.728 62.6637 152.78 62.6018 152.849 62.5648L156.236 61.0461C156.305 61.0145 156.384 61.0098 156.457 61.0329C156.53 61.056 156.592 61.1054 156.631 61.1714C156.669 61.2374 156.682 61.3154 156.667 61.3903C156.652 61.4653 156.609 61.532 156.548 61.5774C156.529 61.5906 156.51 61.6021 156.489 61.6118ZM150.281 64.3932L146.903 65.9119C146.866 65.9286 146.826 65.9377 146.785 65.9389C146.745 65.9401 146.704 65.9333 146.666 65.9188C146.628 65.9043 146.593 65.8825 146.563 65.8545C146.534 65.8266 146.51 65.7931 146.493 65.7559C146.477 65.7188 146.468 65.6787 146.466 65.638C146.465 65.5973 146.472 65.5568 146.486 65.5187C146.501 65.4807 146.523 65.4459 146.551 65.4162C146.579 65.3866 146.612 65.3628 146.649 65.3461L150.036 63.8296C150.105 63.8002 150.182 63.7969 150.254 63.8204C150.325 63.8439 150.385 63.8926 150.424 63.9574C150.462 64.0221 150.475 64.0986 150.461 64.1724C150.447 64.2463 150.407 64.3125 150.347 64.3588C150.327 64.3734 150.305 64.385 150.281 64.3932ZM144.072 67.1767L140.686 68.6825C140.648 68.7025 140.607 68.7146 140.565 68.718C140.523 68.7215 140.48 68.7162 140.44 68.7025C140.4 68.6888 140.363 68.667 140.332 68.6384C140.3 68.6099 140.275 68.5752 140.258 68.5365C140.24 68.4978 140.231 68.4559 140.23 68.4135C140.23 68.3711 140.238 68.329 140.254 68.2898C140.271 68.2507 140.295 68.2153 140.325 68.1859C140.356 68.1565 140.392 68.1337 140.432 68.1189L143.82 66.6002C143.89 66.5686 143.969 66.5639 144.042 66.587C144.115 66.6102 144.177 66.6595 144.216 66.7255C144.254 66.7915 144.267 66.8695 144.252 66.9445C144.236 67.0195 144.194 67.0861 144.132 67.1316L144.072 67.1767ZM137.868 69.9581L134.482 71.4768C134.407 71.5071 134.324 71.5072 134.249 71.4772C134.174 71.4471 134.114 71.3893 134.082 71.3158C134.049 71.2423 134.046 71.159 134.074 71.0834C134.102 71.0079 134.157 70.9461 134.23 70.911L137.616 69.4053C137.685 69.3759 137.763 69.3726 137.834 69.3961C137.906 69.4196 137.966 69.4683 138.004 69.533C138.042 69.5978 138.056 69.6742 138.042 69.7481C138.028 69.8219 137.987 69.8882 137.928 69.9345C137.909 69.9443 137.889 69.9522 137.868 69.9581ZM131.661 72.7416L128.273 74.2474C128.236 74.2639 128.196 74.273 128.155 74.2741C128.115 74.2752 128.075 74.2683 128.037 74.2539C127.999 74.2394 127.964 74.2176 127.935 74.1897C127.905 74.1618 127.882 74.1285 127.865 74.0915C127.849 74.0545 127.84 74.0145 127.838 73.974C127.837 73.9335 127.844 73.8932 127.859 73.8553C127.873 73.8175 127.895 73.7829 127.923 73.7534C127.951 73.724 127.984 73.7003 128.021 73.6838L131.414 72.1759C131.489 72.1426 131.574 72.1404 131.651 72.1698C131.727 72.1993 131.789 72.2579 131.823 72.3329C131.851 72.3967 131.858 72.4684 131.84 72.5361C131.822 72.6039 131.782 72.6635 131.726 72.7051C131.704 72.7199 131.681 72.7322 131.657 72.7416H131.661Z" fill="#A14FE4"/>
<path d="M122.865 62.5217C122.786 62.4296 122.747 62.3105 122.756 62.1899C122.764 62.0692 122.819 61.9567 122.91 61.8764L125.706 59.4414C125.799 59.3606 125.92 59.32 126.043 59.3285C126.165 59.337 126.28 59.3938 126.36 59.4865C126.441 59.5792 126.482 59.7002 126.473 59.8229C126.465 59.9455 126.408 60.0597 126.315 60.1405L123.519 62.5755L123.493 62.5992C123.397 62.6675 123.28 62.6975 123.164 62.6832C123.047 62.6688 122.94 62.6112 122.865 62.5217ZM127.995 58.056C127.918 57.9637 127.879 57.8447 127.887 57.7242C127.896 57.6038 127.951 57.4913 128.041 57.4107L130.837 54.9735C130.883 54.9303 130.936 54.8967 130.995 54.8747C131.054 54.8528 131.116 54.8429 131.179 54.8458C131.242 54.8487 131.303 54.8642 131.36 54.8914C131.416 54.9186 131.466 54.957 131.508 55.0042C131.549 55.0514 131.58 55.1065 131.6 55.1661C131.619 55.2257 131.626 55.2887 131.621 55.3511C131.615 55.4136 131.597 55.4742 131.567 55.5295C131.538 55.5847 131.497 55.6334 131.448 55.6726L128.652 58.1098L128.624 58.1313C128.529 58.2004 128.411 58.2311 128.295 58.2171C128.178 58.2031 128.071 58.1456 127.995 58.056ZM133.135 53.5904C133.095 53.5443 133.064 53.4908 133.045 53.4329C133.025 53.375 133.017 53.3139 133.021 53.2529C133.026 53.192 133.042 53.1325 133.069 53.0778C133.096 53.0231 133.134 52.9744 133.18 52.9343L135.977 50.4992C136.023 50.4593 136.076 50.4287 136.134 50.4093C136.191 50.39 136.252 50.3822 136.313 50.3864C136.374 50.3906 136.433 50.4067 136.488 50.4338C136.542 50.4609 136.591 50.4985 136.631 50.5444C136.671 50.5903 136.701 50.6436 136.721 50.7013C136.74 50.759 136.748 50.82 136.744 50.8807C136.739 50.9414 136.723 51.0007 136.696 51.0552C136.669 51.1097 136.632 51.1584 136.586 51.1983L133.789 53.6355L133.761 53.657C133.667 53.7265 133.551 53.7582 133.435 53.7459C133.319 53.7335 133.212 53.678 133.135 53.5904ZM138.266 49.1225C138.187 49.0304 138.148 48.9113 138.157 48.7906C138.165 48.67 138.221 48.5575 138.311 48.4772L141.108 46.04C141.201 45.9646 141.321 45.9285 141.44 45.9392C141.56 45.9499 141.671 46.0066 141.75 46.0974C141.829 46.1882 141.869 46.306 141.863 46.426C141.857 46.5461 141.804 46.6591 141.716 46.7412L138.92 49.1763L138.894 49.2C138.798 49.2702 138.679 49.3013 138.561 49.2869C138.443 49.2725 138.335 49.2137 138.259 49.1225H138.266ZM143.397 44.6568C143.319 44.5645 143.28 44.4455 143.288 44.325C143.297 44.2046 143.352 44.0921 143.442 44.0115L146.239 41.5743C146.284 41.5311 146.338 41.4974 146.396 41.4755C146.455 41.4536 146.518 41.4437 146.58 41.4466C146.643 41.4495 146.704 41.465 146.761 41.4922C146.817 41.5194 146.868 41.5578 146.909 41.605C146.95 41.6522 146.981 41.7073 147.001 41.7669C147.02 41.8265 147.027 41.8894 147.022 41.9519C147.016 42.0143 146.998 42.075 146.969 42.1303C146.939 42.1855 146.898 42.2342 146.849 42.2734L144.053 44.7106L144.027 44.7321C143.931 44.8038 143.812 44.8359 143.694 44.8219C143.575 44.8079 143.466 44.7488 143.39 44.6568H143.397ZM148.53 40.1911C148.49 40.1451 148.459 40.0916 148.439 40.0337C148.42 39.9758 148.412 39.9147 148.416 39.8537C148.42 39.7928 148.437 39.7333 148.464 39.6786C148.491 39.6239 148.529 39.5751 148.575 39.5351L151.372 37.1C151.417 37.06 151.471 37.0295 151.528 37.0101C151.586 36.9908 151.647 36.983 151.708 36.9872C151.769 36.9914 151.828 37.0075 151.882 37.0346C151.937 37.0617 151.986 37.0993 152.026 37.1452C152.066 37.1911 152.096 37.2444 152.115 37.3021C152.135 37.3598 152.143 37.4208 152.138 37.4815C152.134 37.5422 152.118 37.6015 152.091 37.656C152.064 37.7105 152.026 37.7591 151.98 37.7991L149.184 40.2363L149.156 40.2578C149.062 40.3292 148.944 40.362 148.826 40.3496C148.709 40.3372 148.6 40.2806 148.523 40.1911H148.53ZM153.661 35.7233C153.582 35.6312 153.543 35.512 153.552 35.3914C153.56 35.2708 153.615 35.1583 153.706 35.078L156.502 32.6408C156.596 32.5654 156.715 32.5292 156.835 32.5399C156.955 32.5507 157.066 32.6074 157.145 32.6982C157.223 32.7889 157.264 32.9068 157.258 33.0268C157.252 33.1469 157.199 33.2599 157.111 33.342L154.315 35.7771L154.289 35.7986C154.193 35.8696 154.074 35.9014 153.956 35.8873C153.838 35.8733 153.73 35.8146 153.654 35.7233H153.661ZM158.791 31.2576C158.714 31.1653 158.675 31.0462 158.683 30.9258C158.692 30.8053 158.747 30.6929 158.837 30.6123L160.575 29.1065C160.621 29.0665 160.674 29.036 160.732 29.0166C160.79 28.9973 160.85 28.9895 160.911 28.9937C160.972 28.9979 161.031 29.014 161.086 29.0411C161.14 29.0682 161.189 29.1058 161.229 29.1517C161.269 29.1976 161.299 29.2509 161.319 29.3086C161.338 29.3663 161.346 29.4273 161.342 29.488C161.338 29.5487 161.321 29.608 161.294 29.6625C161.267 29.717 161.23 29.7656 161.184 29.8056L159.448 31.3114L159.42 31.3329C159.324 31.4034 159.205 31.4348 159.087 31.4209C158.969 31.4069 158.861 31.3485 158.785 31.2576H158.791Z" fill="#A14FE4"/>
<path d="M56.6391 101.393L52.6057 94.1198L46.5044 97.5029L50.5378 104.776L56.6391 101.393Z" fill="#9758DD"/>
<path d="M50.4162 105.217L46.0706 97.3805L52.7396 93.6827L57.0874 101.519L50.4162 105.217ZM46.9461 97.63L50.6679 104.339L56.2054 101.268L52.4858 94.5604L46.9461 97.63Z" fill="#504EFF"/>
<path d="M51.3964 106.329L45.6405 95.9506L42.7789 97.5373L48.5348 107.916L51.3964 106.329Z" fill="white"/>
<path d="M48.4154 108.357L42.3508 97.4127L45.7779 95.5132L51.8467 106.456L48.4154 108.357ZM43.2243 97.6643L48.6671 107.48L50.9561 106.206L45.5133 96.3909L43.2243 97.6643Z" fill="#504EFF"/>
<path d="M47.8992 106.772L43.4141 98.6851L42.4602 99.214L46.9454 107.301L47.8992 106.772Z" fill="white"/>
<path d="M46.8878 107.525L42.2432 99.1508L43.4845 98.4603L48.1291 106.837L46.8878 107.525ZM42.6906 99.2798L47.0148 107.08L47.6817 106.71L43.3554 98.912L42.6906 99.2798Z" fill="#504EFF"/>
<path d="M41.7917 98.0033L47.6165 108.506L26.6784 120.116C25.2853 120.888 23.6423 121.076 22.1109 120.637C20.5795 120.198 19.2852 119.169 18.5127 117.776C17.7401 116.383 17.5526 114.74 17.9914 113.209C18.4303 111.678 19.4595 110.384 20.8526 109.611L41.7906 98.0014L41.7917 98.0033Z" fill="#9758DD"/>
<path d="M23.7829 121.195C22.6517 121.197 21.5407 120.895 20.5655 120.322C19.5902 119.749 18.7861 118.925 18.2368 117.936C17.4231 116.468 17.2257 114.737 17.688 113.124C18.1503 111.51 19.2345 110.146 20.7022 109.332L41.9206 97.559L48.0604 108.631L26.8421 120.395C25.9076 120.919 24.8543 121.195 23.7829 121.195ZM18.8005 117.624C19.5333 118.942 20.7586 119.914 22.2076 120.329C23.6567 120.744 25.2112 120.567 26.5301 119.838L47.1827 108.385L41.6667 98.4431L21.0142 109.896C19.697 110.628 18.7242 111.853 18.3088 113.302C17.8935 114.751 18.0695 116.305 18.7983 117.624H18.8005Z" fill="#504EFF"/>
<path d="M82.4961 115.845C100.625 115.845 115.321 101.151 115.321 83.0239C115.321 64.8971 100.625 50.2024 82.4961 50.2024C64.3675 50.2024 49.6714 64.8971 49.6714 83.0239C49.6714 101.151 64.3675 115.845 82.4961 115.845Z" fill="#9758DD"/>
<path d="M82.5285 116.185C76.3907 116.179 70.3746 114.473 65.1464 111.258C59.9183 108.043 55.6821 103.444 52.9071 97.9698C44.6676 81.6559 51.2334 61.6807 67.5489 53.442C75.3957 49.4791 84.4954 48.795 92.8466 51.5402C101.198 54.2853 108.116 60.2349 112.081 68.0803C120.323 84.3921 113.753 104.369 97.4413 112.608C92.8199 114.954 87.7113 116.179 82.5285 116.185ZM82.4618 50.5079C77.3776 50.5123 72.3659 51.7142 67.8329 54.0163C51.8357 62.0959 45.3969 81.6838 53.4772 97.6837C55.4019 101.494 58.0583 104.887 61.2947 107.671C64.5312 110.454 68.2842 112.573 72.3396 113.905C76.3949 115.238 80.6731 115.76 84.9299 115.439C89.1867 115.119 93.3387 113.963 97.1488 112.038C113.146 103.959 119.587 84.3727 111.504 68.3707C108.783 63.0044 104.629 58.496 99.5034 55.3447C94.3774 52.1935 88.4791 50.5224 82.4618 50.5165V50.5079Z" fill="#504EFF"/>
<path d="M82.4964 108.603C96.6245 108.603 108.078 97.1507 108.078 83.0239C108.078 68.8971 96.6245 57.4451 82.4964 57.4451C68.3683 57.4451 56.9152 68.8971 56.9152 83.0239C56.9152 97.1507 68.3683 108.603 82.4964 108.603Z" fill="#E5D9F3"/>
<path d="M82.5371 108.921C76.1902 108.93 70.061 106.608 65.3134 102.396C60.5659 98.1836 57.5305 92.375 56.7838 86.0727C56.0371 79.7704 57.631 73.4134 61.2628 68.2087C64.8946 63.004 70.3115 59.3141 76.4848 57.8397C82.6581 56.3653 89.1579 57.209 94.7501 60.2106C100.342 63.2122 104.637 68.1628 106.82 74.1222C109.002 80.0816 108.92 86.6348 106.589 92.5376C104.257 98.4403 99.8393 103.282 94.1736 106.142C90.567 107.97 86.5804 108.922 82.5371 108.921ZM82.4532 57.7635C78.6402 57.7693 74.8779 58.6383 71.4487 60.3054C68.0194 61.9724 65.0122 64.3942 62.6525 67.3891C60.2928 70.384 58.6419 73.8742 57.8236 77.5981C57.0053 81.3219 57.041 85.1827 57.9278 88.8909C58.8146 92.599 60.5296 96.0582 62.9441 99.0091C65.3587 101.96 68.4101 104.326 71.8695 105.929C75.3289 107.533 79.1066 108.332 82.9191 108.268C86.7316 108.203 90.48 107.276 93.8831 105.557C98.9576 102.995 103.019 98.796 105.411 93.6396C107.803 88.4831 108.384 82.6706 107.062 77.1424C105.74 71.6142 102.592 66.6937 98.1256 63.177C93.6597 59.6602 88.1378 57.7529 82.4532 57.7635Z" fill="#504EFF"/>
</g>
<defs>
<clipPath id="clip0_9805_214516">
<rect width="162" height="136.227" fill="white"/>
</clipPath>
</defs>
</svg>
