<svg width="33" height="32" viewBox="0 0 33 32" fill="none" xmlns="http://www.w3.org/2000/svg">
<path d="M16.75 7.25C19.1369 7.25 21.4261 8.19821 23.114 9.88604C24.8018 11.5739 25.75 13.8631 25.75 16.25C25.75 18.6369 24.8018 20.9261 23.114 22.614C21.4261 24.3018 19.1369 25.25 16.75 25.25C14.3631 25.25 12.0739 24.3018 10.386 22.614C8.69821 20.9261 7.75 18.6369 7.75 16.25C7.75 13.8631 8.69821 11.5739 10.386 9.88604C12.0739 8.19821 14.3631 7.25 16.75 7.25ZM15.6289 18.0256L13.6296 16.025C13.5579 15.9533 13.4728 15.8965 13.3792 15.8577C13.2855 15.8189 13.1851 15.7989 13.0838 15.7989C12.9824 15.7989 12.8821 15.8189 12.7884 15.8577C12.6948 15.8965 12.6097 15.9533 12.538 16.025C12.3932 16.1698 12.3119 16.3661 12.3119 16.5708C12.3119 16.7755 12.3932 16.9718 12.538 17.1166L15.0837 19.6623C15.1552 19.7343 15.2402 19.7915 15.3339 19.8305C15.4276 19.8695 15.528 19.8896 15.6295 19.8896C15.731 19.8896 15.8314 19.8695 15.9251 19.8305C16.0188 19.7915 16.1038 19.7343 16.1753 19.6623L21.4467 14.3896C21.5193 14.3182 21.5771 14.2331 21.6167 14.1393C21.6563 14.0455 21.677 13.9448 21.6774 13.8429C21.6779 13.7411 21.6582 13.6402 21.6195 13.546C21.5808 13.4518 21.5238 13.3662 21.4518 13.2942C21.3798 13.2221 21.2943 13.1651 21.2002 13.1262C21.1061 13.0874 21.0052 13.0676 20.9033 13.0679C20.8015 13.0683 20.7007 13.0888 20.6069 13.1283C20.513 13.1678 20.4279 13.2255 20.3564 13.298L15.6289 18.0256Z" fill="#1BC47D"/>
</svg>
