<svg width="33" height="32" viewBox="0 0 33 32" fill="none" xmlns="http://www.w3.org/2000/svg">
<path d="M16.5 20.5C16.755 20.5 16.9689 20.4136 17.1417 20.2408C17.3145 20.068 17.4006 19.8544 17.4 19.6C17.4 19.345 17.3136 19.1311 17.1408 18.9583C16.968 18.7855 16.7544 18.6994 16.5 18.7C16.245 18.7 16.0311 18.7864 15.8583 18.9592C15.6855 19.132 15.5994 19.3456 15.6 19.6C15.6 19.855 15.6864 20.0689 15.8592 20.2417C16.032 20.4145 16.2456 20.5006 16.5 20.5ZM16.5 16.9C16.755 16.9 16.9689 16.8136 17.1417 16.6408C17.3145 16.468 17.4006 16.2544 17.4 16V12.4C17.4 12.145 17.3136 11.9311 17.1408 11.7583C16.968 11.5855 16.7544 11.4994 16.5 11.5C16.245 11.5 16.0311 11.5864 15.8583 11.7592C15.6855 11.932 15.5994 12.1456 15.6 12.4V16C15.6 16.255 15.6864 16.4689 15.8592 16.6417C16.032 16.8145 16.2456 16.9006 16.5 16.9ZM16.5 25C15.255 25 14.085 24.7636 12.99 24.2908C11.895 23.818 10.9425 23.1769 10.1325 22.3675C9.3225 21.5575 8.6814 20.605 8.2092 19.51C7.737 18.415 7.5006 17.245 7.5 16C7.5 14.755 7.7364 13.585 8.2092 12.49C8.682 11.395 9.3231 10.4425 10.1325 9.6325C10.9425 8.8225 11.895 8.1814 12.99 7.7092C14.085 7.237 15.255 7.0006 16.5 7C17.745 7 18.915 7.2364 20.01 7.7092C21.105 8.182 22.0575 8.8231 22.8675 9.6325C23.6775 10.4425 24.3189 11.395 24.7917 12.49C25.2645 13.585 25.5006 14.755 25.5 16C25.5 17.245 25.2636 18.415 24.7908 19.51C24.318 20.605 23.6769 21.5575 22.8675 22.3675C22.0575 23.1775 21.105 23.8189 20.01 24.2917C18.915 24.7645 17.745 25.0006 16.5 25Z" fill="#F75B2B"/>
</svg>
